#N canvas 281 150 3145 865 12;
#X obj 92 59 loadbang;
#X msg 92 95 \; pd dsp 1;
#X obj 71 427 osc~;
#X text 30 355 Frequency;
#X text 124 357 Phase;
#X obj 74 309 loadbang;
#X msg 59 387 1000;
#X msg 120 382 0;
#X obj 223 428 osc~;
#X text 182 356 Frequency;
#X text 276 358 Phase;
#X obj 226 310 loadbang;
#X msg 211 388 1020;
#X msg 272 383 30;
#X obj 71 475 *~;
#X obj 224 476 *~;
#X obj 349 321 hsl 170 20 0 1 0 0 empty empty empty -2 -10 0 12 #fcfcfc #000000 #000000 0 1;
#X obj 332 149 metro 3000;
#X obj 332 118 tgl 20 0 empty empty empty 0 -10 0 12 #fcfcfc #000000 #000000 0 1;
#X msg 332 88 1;
#X obj 332 59 loadbang;
#X obj 332 193 bng 20 250 50 0 empty empty empty 0 -10 0 12 #fcfcfc #000000 #000000;
#X obj 334 246 tgl 20 0 empty empty empty 0 -10 0 12 #fcfcfc #000000 #000000 0 1;
#X obj 373 181 delay 100;
#X obj 373 206 bng 20 250 50 0 empty empty empty 0 -10 0 12 #fcfcfc #000000 #000000;
#X obj 137 507 +~;
#X obj 330 606 osc~;
#X text 289 534 Frequency;
#X text 383 536 Phase;
#X obj 333 488 loadbang;
#X msg 379 561 0;
#X obj 482 607 osc~;
#X text 441 535 Frequency;
#X text 535 537 Phase;
#X obj 485 489 loadbang;
#X msg 531 562 30;
#X obj 279 833 dac~ 1 2;
#X obj 330 654 *~;
#X obj 483 655 *~;
#X obj 587 586 hsl 170 20 0 1 0 0 empty empty empty -2 -10 0 12 #fcfcfc #000000 #000000 0 1;
#X obj 396 686 +~;
#X obj 614 284 bng 20 250 50 0 empty empty empty 0 -10 0 12 #fcfcfc #000000 #000000;
#X obj 646 275 delay 100;
#X obj 646 300 bng 20 250 50 0 empty empty empty 0 -10 0 12 #fcfcfc #000000 #000000;
#X obj 613 340 tgl 20 0 empty empty empty 0 -10 0 12 #fcfcfc #000000 #000000 0 1;
#X msg 318 566 600;
#X msg 470 567 640;
#X obj 613 230 delay 32;
#X obj 346 346 *~ 0.5;
#X obj 584 611 *~ 0.2;
#X obj 886 390 hsl 170 20 0 1 0 0 empty empty empty -2 -10 0 12 #fcfcfc #000000 #000000 0 1;
#X obj 829 452 *~;
#X obj 235 668 +~;
#X obj 839 118 tgl 20 0 empty empty empty 0 -10 0 12 #fcfcfc #000000 #000000 0 1;
#X msg 839 89 1;
#X obj 839 61 loadbang;
#X obj 839 192 bng 20 250 50 0 empty empty empty 0 -10 0 12 #fcfcfc #000000 #000000;
#X obj 841 245 tgl 20 0 empty empty empty 0 -10 0 12 #fcfcfc #000000 #000000 0 1;
#X obj 880 205 bng 20 250 50 0 empty empty empty 0 -10 0 12 #fcfcfc #000000 #000000;
#X obj 802 528 rev1~;
#X obj 870 457 loadbang;
#X obj 839 148 metro 100;
#X obj 927 492 bng 20 250 50 0 empty empty empty 0 -10 0 12 #fcfcfc #000000 #000000;
#X obj 920 585 +~;
#X obj 1134 391 hsl 170 20 0 1 0 0 empty empty empty -2 -10 0 12 #fcfcfc #000000 #000000 0 1;
#X obj 1077 453 *~;
#X obj 1087 119 tgl 20 0 empty empty empty 0 -10 0 12 #fcfcfc #000000 #000000 0 1;
#X msg 1087 90 1;
#X obj 1087 62 loadbang;
#X obj 1087 193 bng 20 250 50 0 empty empty empty 0 -10 0 12 #fcfcfc #000000 #000000;
#X obj 1089 246 tgl 20 0 empty empty empty 0 -10 0 12 #fcfcfc #000000 #000000 0 1;
#X obj 1128 206 bng 20 250 50 0 empty empty empty 0 -10 0 12 #fcfcfc #000000 #000000;
#X obj 1050 529 rev1~;
#X obj 1118 458 loadbang;
#X obj 1175 493 bng 20 250 50 0 empty empty empty 0 -10 0 12 #fcfcfc #000000 #000000;
#X obj 859 424 *~ 0.7;
#X obj 1107 425 *~ 0.7;
#X obj 1087 149 metro 200;
#X obj 1128 181 delay 100;
#X obj 1284 115 snapshot~;
#X obj 1380 93 tgl 20 0 empty empty empty 0 -10 0 12 #fcfcfc #000000 #000000 0 1;
#X msg 1380 64 1;
#X obj 1380 34 loadbang;
#X floatatom 1282 205 5 0 0 0 - - - 0;
#X obj 1380 125 metro 10;
#X obj 1282 229 hsl 170 20 0 0.6 0 0 empty empty empty -2 -10 0 12 #fcfcfc #000000 #000000 0 1;
#X obj 1283 140 + 1;
#X obj 396 748 +~;
#X obj 1288 81 osc~ 0.1;
#X obj 920 610 *~ 0.5;
#X obj 387 788 min~;
#X obj 257 778 min~;
#X msg 318 748 1;
#X msg 448 758 1;
#X obj 1279 279 tgl 20 0 empty empty empty 0 -10 0 12 #fcfcfc #000000 #000000 0 1;
#X obj 1279 254 < 0.001;
#X obj 1279 304 select 1;
#X obj 1279 329 bng 20 250 50 0 empty empty empty 0 -10 0 12 #fcfcfc #000000 #000000;
#X obj 1282 165 * 0.6;
#X obj 915 681 +~;
#X obj 1574 379 hsl 170 20 0 1 0 0 empty empty empty -2 -10 0 12 #fcfcfc #000000 #000000 0 1;
#X obj 1517 441 *~;
#X obj 1527 107 tgl 20 0 empty empty empty 0 -10 0 12 #fcfcfc #000000 #000000 0 1;
#X msg 1527 78 1;
#X obj 1527 50 loadbang;
#X obj 1527 181 bng 20 250 50 0 empty empty empty 0 -10 0 12 #fcfcfc #000000 #000000;
#X obj 1529 234 tgl 20 0 empty empty empty 0 -10 0 12 #fcfcfc #000000 #000000 0 1;
#X obj 1568 194 bng 20 250 50 0 empty empty empty 0 -10 0 12 #fcfcfc #000000 #000000;
#X obj 1490 517 rev1~;
#X obj 1558 446 loadbang;
#X obj 1527 137 metro 100;
#X obj 1568 169 delay 20;
#X obj 1615 481 bng 20 250 50 0 empty empty empty 0 -10 0 12 #fcfcfc #000000 #000000;
#X obj 1608 574 +~;
#X obj 1822 380 hsl 170 20 0 1 0 0 empty empty empty -2 -10 0 12 #fcfcfc #000000 #000000 0 1;
#X obj 1765 442 *~;
#X obj 1775 108 tgl 20 0 empty empty empty 0 -10 0 12 #fcfcfc #000000 #000000 0 1;
#X msg 1775 79 1;
#X obj 1775 51 loadbang;
#X obj 1775 182 bng 20 250 50 0 empty empty empty 0 -10 0 12 #fcfcfc #000000 #000000;
#X obj 1777 235 tgl 20 0 empty empty empty 0 -10 0 12 #fcfcfc #000000 #000000 0 1;
#X obj 1816 195 bng 20 250 50 0 empty empty empty 0 -10 0 12 #fcfcfc #000000 #000000;
#X obj 1738 518 rev1~;
#X obj 1806 447 loadbang;
#X obj 1863 482 bng 20 250 50 0 empty empty empty 0 -10 0 12 #fcfcfc #000000 #000000;
#X obj 1547 413 *~ 0.7;
#X obj 1795 414 *~ 0.7;
#X obj 1775 138 metro 200;
#X obj 1972 104 snapshot~;
#X obj 2068 82 tgl 20 0 empty empty empty 0 -10 0 12 #fcfcfc #000000 #000000 0 1;
#X msg 2068 53 1;
#X obj 2068 23 loadbang;
#X floatatom 1970 194 5 0 0 0 - - - 0;
#X obj 2068 114 metro 10;
#X obj 1970 218 hsl 170 20 0 0.6 0 0 empty empty empty -2 -10 0 12 #fcfcfc #000000 #000000 0 1;
#X obj 1971 129 + 1;
#X obj 1608 599 *~ 0.5;
#X obj 1967 268 tgl 20 0 empty empty empty 0 -10 0 12 #fcfcfc #000000 #000000 0 1;
#X obj 1967 243 < 0.001;
#X obj 1967 293 select 1;
#X obj 1967 318 bng 20 250 50 0 empty empty empty 0 -10 0 12 #fcfcfc #000000 #000000;
#X obj 1970 154 * 0.6;
#X obj 1955 68 osc~ 0.1 180;
#X obj 862 345 phasor~ 100 0;
#X obj 1110 346 phasor~ 200 0;
#X obj 1550 333 phasor~ 123 0;
#X obj 1798 335 phasor~ 235 0;
#X obj 884 282 loadbang;
#X obj 1109 286 loadbang;
#X obj 1568 254 loadbang;
#X obj 1806 271 loadbang;
#X msg 883 312 100;
#X msg 1109 311 124;
#X msg 854 487 200;
#X msg 1100 489 200;
#X msg 1543 476 200;
#X msg 1791 477 200;
#X msg 1565 283 123;
#X msg 1809 302 235;
#X obj 880 180 delay 80;
#X obj 1816 170 delay 150;
#X connect 0 0 1 0;
#X connect 2 0 14 0;
#X connect 5 0 6 0;
#X connect 5 0 7 0;
#X connect 6 0 2 0;
#X connect 7 0 2 1;
#X connect 8 0 15 0;
#X connect 11 0 12 0;
#X connect 11 0 13 0;
#X connect 12 0 8 0;
#X connect 13 0 8 1;
#X connect 14 0 25 0;
#X connect 15 0 25 1;
#X connect 16 0 48 0;
#X connect 17 0 21 0;
#X connect 17 0 23 0;
#X connect 17 0 47 0;
#X connect 18 0 17 0;
#X connect 19 0 18 0;
#X connect 20 0 19 0;
#X connect 21 0 22 0;
#X connect 22 0 16 0;
#X connect 23 0 24 0;
#X connect 24 0 22 0;
#X connect 25 0 52 0;
#X connect 26 0 37 0;
#X connect 29 0 45 0;
#X connect 29 0 30 0;
#X connect 30 0 26 1;
#X connect 31 0 38 0;
#X connect 34 0 46 0;
#X connect 34 0 35 0;
#X connect 35 0 31 1;
#X connect 37 0 40 0;
#X connect 38 0 40 1;
#X connect 39 0 49 0;
#X connect 40 0 87 0;
#X connect 41 0 44 0;
#X connect 42 0 43 0;
#X connect 43 0 44 0;
#X connect 44 0 39 0;
#X connect 45 0 26 0;
#X connect 46 0 31 0;
#X connect 47 0 41 0;
#X connect 47 0 42 0;
#X connect 48 0 15 0;
#X connect 48 0 14 1;
#X connect 49 0 38 0;
#X connect 49 0 37 1;
#X connect 50 0 75 0;
#X connect 51 0 59 0;
#X connect 52 0 91 0;
#X connect 53 0 61 0;
#X connect 54 0 53 0;
#X connect 55 0 54 0;
#X connect 56 0 57 0;
#X connect 57 0 50 0;
#X connect 58 0 57 0;
#X connect 59 0 63 0;
#X connect 60 0 153 0;
#X connect 61 0 56 0;
#X connect 61 0 159 0;
#X connect 62 0 59 2;
#X connect 63 0 89 0;
#X connect 64 0 76 0;
#X connect 65 0 72 0;
#X connect 66 0 77 0;
#X connect 67 0 66 0;
#X connect 68 0 67 0;
#X connect 69 0 70 0;
#X connect 70 0 64 0;
#X connect 71 0 70 0;
#X connect 72 0 63 1;
#X connect 73 0 154 0;
#X connect 74 0 72 2;
#X connect 75 0 51 1;
#X connect 76 0 65 1;
#X connect 77 0 69 0;
#X connect 77 0 78 0;
#X connect 78 0 71 0;
#X connect 79 0 86 0;
#X connect 80 0 84 0;
#X connect 81 0 80 0;
#X connect 82 0 81 0;
#X connect 83 0 85 0;
#X connect 84 0 79 0;
#X connect 85 0 89 1;
#X connect 85 0 95 0;
#X connect 86 0 98 0;
#X connect 87 0 90 0;
#X connect 88 0 79 0;
#X connect 89 0 99 0;
#X connect 90 0 36 1;
#X connect 91 0 36 0;
#X connect 92 0 91 1;
#X connect 93 0 90 1;
#X connect 94 0 96 0;
#X connect 95 0 94 0;
#X connect 96 0 97 0;
#X connect 97 0 62 0;
#X connect 97 0 74 0;
#X connect 98 0 83 0;
#X connect 99 0 52 1;
#X connect 99 0 87 1;
#X connect 100 0 125 0;
#X connect 101 0 108 0;
#X connect 102 0 110 0;
#X connect 103 0 102 0;
#X connect 104 0 103 0;
#X connect 105 0 106 0;
#X connect 106 0 100 0;
#X connect 107 0 106 0;
#X connect 108 0 113 0;
#X connect 109 0 155 0;
#X connect 110 0 105 0;
#X connect 110 0 111 0;
#X connect 111 0 107 0;
#X connect 112 0 108 2;
#X connect 113 0 136 0;
#X connect 114 0 126 0;
#X connect 115 0 122 0;
#X connect 116 0 127 0;
#X connect 117 0 116 0;
#X connect 118 0 117 0;
#X connect 119 0 120 0;
#X connect 120 0 114 0;
#X connect 121 0 120 0;
#X connect 122 0 113 1;
#X connect 123 0 156 0;
#X connect 124 0 122 2;
#X connect 125 0 101 1;
#X connect 126 0 115 1;
#X connect 127 0 119 0;
#X connect 127 0 160 0;
#X connect 128 0 135 0;
#X connect 129 0 133 0;
#X connect 130 0 129 0;
#X connect 131 0 130 0;
#X connect 132 0 134 0;
#X connect 133 0 128 0;
#X connect 134 0 136 1;
#X connect 134 0 138 0;
#X connect 135 0 141 0;
#X connect 136 0 99 1;
#X connect 137 0 139 0;
#X connect 138 0 137 0;
#X connect 139 0 140 0;
#X connect 140 0 112 0;
#X connect 140 0 124 0;
#X connect 141 0 132 0;
#X connect 142 0 128 0;
#X connect 143 0 51 0;
#X connect 144 0 65 0;
#X connect 145 0 101 0;
#X connect 146 0 115 0;
#X connect 147 0 151 0;
#X connect 148 0 152 0;
#X connect 149 0 157 0;
#X connect 150 0 158 0;
#X connect 151 0 143 0;
#X connect 152 0 144 0;
#X connect 153 0 59 1;
#X connect 154 0 72 1;
#X connect 155 0 108 1;
#X connect 156 0 122 1;
#X connect 157 0 145 0;
#X connect 158 0 146 0;
#X connect 159 0 58 0;
#X connect 160 0 121 0;
